<?xml version="1.0" encoding="UTF-8" standalone="no"?>
<!DOCTYPE svg PUBLIC "-//W3C//DTD SVG 1.1//EN" "http://www.w3.org/Graphics/SVG/1.1/DTD/svg11.dtd">
<svg width="100%" height="100%" viewBox="0 0 1280 640" version="1.1" xmlns="http://www.w3.org/2000/svg" xmlns:xlink="http://www.w3.org/1999/xlink" xml:space="preserve" xmlns:serif="http://www.serif.com/" style="fill-rule:evenodd;clip-rule:evenodd;stroke-linecap:round;stroke-linejoin:round;stroke-miterlimit:1.5;">
    <g id="Background" transform="matrix(0.970906,0,0,0.952692,23.0157,19.2245)">
        <rect x="-23.705" y="-20.179" width="1318.36" height="671.781" style="fill:rgb(30,30,30);stroke:black;stroke-width:4.38px;"/>
    </g>
    <g id="Logo" transform="matrix(0.592593,0,0,0.296296,535.89,2.19178)">
        <g transform="matrix(0.469414,0,0,0.938828,-198.59,60.5351)">
            <path d="M1323.54,1848.71L1405.46,1692.44L1566.28,713.903L1267.4,528.814L848.677,861.063L1323.54,1848.71Z" style="fill:rgb(248,248,248);stroke:rgb(30,30,30);stroke-width:53.5px;"/>
        </g>
        <g transform="matrix(0.469414,0,0,0.938828,-198.59,60.5351)">
            <path d="M1566.28,713.903L1282.57,307.315L1267.4,528.814L1566.28,713.903Z" style="fill:rgb(248,248,248);stroke:rgb(30,30,30);stroke-width:53.5px;"/>
        </g>
        <g transform="matrix(0.469414,0,0,0.938828,-198.59,60.5351)">
            <path d="M798.612,580.396L848.677,861.063L1267.4,528.814L1282.57,307.315L798.612,580.396Z" style="fill:rgb(248,248,248);stroke:rgb(30,30,30);stroke-width:53.5px;"/>
        </g>
        <g transform="matrix(0.469414,0,0,0.938828,-198.59,60.5351)">
            <path d="M1323.54,1848.71L889.639,1692.44L848.677,861.063L1323.54,1848.71Z" style="fill:rgb(248,248,248);stroke:rgb(30,30,30);stroke-width:53.5px;"/>
        </g>
        <g transform="matrix(0.469414,0,0,0.938828,-198.59,60.5351)">
            <path d="M798.612,580.396L596.835,1011.26L889.639,1692.44L848.677,861.063L798.612,580.396Z" style="fill:rgb(248,248,248);stroke:rgb(30,30,30);stroke-width:53.5px;"/>
        </g>
    </g>
    <g id="Name" transform="matrix(0.634921,0,0,0.634921,-398.989,-289.539)">
        <text x="765.752px" y="1015.76px" style="font-family:'Microsoft-Yi-Baiti', 'Microsoft Yi Baiti', cursive;font-size:200px;fill:rgb(248,248,248);">OBSIDIAN      STATS</text>
    </g>
</svg>
